<svg width="18" height="18" viewBox="0 0 18 18" fill="none" xmlns="http://www.w3.org/2000/svg">
<path d="M15 6H12.8925C12.555 5.415 12.09 4.9125 11.5275 4.53L12.75 3.3075L11.6925 2.25L10.065 3.8775C9.72 3.795 9.3675 3.75 9 3.75C8.6325 3.75 8.28 3.795 7.9425 3.8775L6.3075 2.25L5.25 3.3075L6.465 4.53C5.91 4.9125 5.445 5.415 5.1075 6H3V7.5H4.5675C4.53 7.7475 4.5 7.995 4.5 8.25V9H3V10.5H4.5V11.25C4.5 11.505 4.53 11.7525 4.5675 12H3V13.5H5.1075C5.8875 14.8425 7.335 15.75 9 15.75C10.665 15.75 12.1125 14.8425 12.8925 13.5H15V12H13.4325C13.47 11.7525 13.5 11.505 13.5 11.25V10.5H15V9H13.5V8.25C13.5 7.995 13.47 7.7475 13.4325 7.5H15V6ZM12 9V11.25C12 11.415 11.9775 11.6025 11.9475 11.775L11.8725 12.2625L11.595 12.75C11.055 13.68 10.065 14.25 9 14.25C7.935 14.25 6.945 13.6725 6.405 12.75L6.1275 12.27L6.0525 11.7825C6.0225 11.61 6 11.4225 6 11.25V8.25C6 8.0775 6.0225 7.89 6.0525 7.725L6.1275 7.2375L6.405 6.75C6.63 6.36 6.945 6.0225 7.3125 5.7675L7.74 5.475L8.295 5.34C8.5275 5.28 8.7675 5.25 9 5.25C9.24 5.25 9.4725 5.28 9.7125 5.34L10.2225 5.46L10.68 5.775C11.055 6.03 11.3625 6.36 11.5875 6.7575L11.8725 7.245L11.9475 7.7325C11.9775 7.8975 12 8.085 12 8.25V9ZM7.5 10.5H10.5V12H7.5V10.5ZM7.5 7.5H10.5V9H7.5V7.5Z" fill="#B2B2B2"/>
</svg>
