<svg width="944" height="317" viewBox="0 0 944 317" fill="none" xmlns="http://www.w3.org/2000/svg">
<path d="M213.345 0L0 111.7L83.3703 153.587V253.393L213.345 317L343.32 253.393V153.587L426.69 111.7L213.345 0ZM308.625 227.537L213.863 274.078L117.029 227.02V169.618L213.345 218.228L308.625 170.653V227.537ZM213.345 178.927L79.2277 111.7L213.345 39.3018L347.462 111.7L213.345 178.927Z" fill="white"/>
<path d="M266.163 152.553L275.484 147.899C270.306 118.423 244.415 95.6689 213.863 95.6689C182.793 95.6689 156.902 118.423 151.724 147.899L161.044 152.553C162.08 145.313 164.151 138.073 167.776 131.868C170.365 133.419 173.472 134.971 177.097 136.005C176.061 141.693 175.026 147.382 175.026 153.07H162.598L184.864 164.447V163.413H208.167V174.79C207.131 174.79 206.095 174.79 205.06 174.79L212.827 178.41L220.595 174.79C220.077 174.79 219.041 174.79 218.523 174.79V163.413H241.826C241.826 163.93 241.826 163.93 241.826 164.447L264.092 153.587H252.182C251.664 147.382 251.146 141.693 250.111 136.522C253.736 135.488 256.843 133.936 259.432 132.385C263.056 138.591 265.128 145.313 266.163 152.553ZM180.204 126.697C178.133 125.662 176.061 125.145 173.99 124.111C177.615 119.974 181.758 116.354 186.418 113.768C183.829 117.388 181.758 122.043 180.204 126.697ZM208.685 153.587H185.382C185.9 148.933 186.418 143.762 187.454 139.108C194.185 140.659 201.435 141.693 209.202 142.211V153.587H208.685ZM208.685 132.385C201.953 131.868 195.739 131.351 190.043 129.799C194.185 117.906 201.435 109.631 208.685 107.046V132.385ZM218.523 107.046C225.773 109.631 233.022 117.906 237.165 129.799C231.469 131.351 225.255 131.868 218.523 132.385V107.046ZM218.523 153.587V142.211C225.773 141.693 233.022 140.659 240.272 139.108C241.308 143.762 241.826 148.416 242.343 153.587H218.523ZM247.004 126.697C245.45 122.043 243.379 117.388 240.79 113.251C245.45 115.837 249.593 119.457 253.218 123.594C251.146 125.145 249.075 126.18 247.004 126.697Z" fill="white"/>
<path d="M537.505 62.0555C536.987 62.5726 535.952 64.124 535.434 64.124C534.916 64.6411 533.88 64.6411 532.327 64.6411C531.809 64.6411 530.256 64.6411 528.702 64.124C527.149 63.6069 525.595 62.5726 524.042 62.0555C522.488 61.5384 520.935 60.5041 518.863 59.987C516.792 59.4699 514.203 59.4698 512.132 59.4698C507.471 59.4698 504.364 59.987 502.293 62.5726C500.222 64.6412 499.186 67.2268 499.186 70.3296C499.186 72.3981 499.704 73.9495 501.257 75.5009C502.811 77.0523 504.364 77.5694 506.436 79.1208C508.507 79.6379 511.096 81.1893 514.203 82.2235C517.31 83.2578 519.381 83.7749 522.488 85.3263C525.595 85.8434 528.702 87.3948 530.773 88.9462C533.88 90.4976 535.952 92.049 538.541 94.1175C540.612 96.186 542.166 98.7717 543.719 101.874C545.273 104.977 545.791 108.597 545.791 113.251C545.791 117.905 545.273 122.042 543.719 126.697C542.166 130.316 540.094 134.454 536.987 137.039C533.88 140.142 530.256 142.21 525.595 144.796C520.935 146.347 515.756 146.865 510.06 146.865C506.953 146.865 503.329 146.865 500.222 146.347C497.115 145.83 493.49 144.796 490.383 143.245C487.276 141.693 484.169 141.176 481.58 138.591C478.473 137.039 476.402 134.971 474.848 133.419L481.58 122.042C482.098 121.525 483.133 120.491 483.651 119.974C484.169 119.457 485.722 119.457 486.758 119.457C488.312 119.457 489.865 119.974 491.419 121.008C492.972 121.525 494.525 122.56 496.079 124.111C497.632 124.628 499.704 126.179 502.293 127.214C504.882 128.248 507.471 128.765 510.578 128.765C515.239 128.765 518.346 128.248 520.417 125.662C522.488 123.594 524.042 120.491 524.042 116.871C524.042 114.803 523.524 112.217 521.97 110.666C520.417 109.114 518.863 107.563 516.792 107.046C514.721 106.529 512.132 105.494 509.025 104.977C505.918 104.46 503.846 103.426 500.739 102.909C497.632 102.392 495.561 100.84 492.454 99.8059C489.347 98.2545 487.276 96.7031 484.687 94.6346C482.615 92.5661 481.062 89.9805 479.508 86.3606C477.955 83.2578 477.437 78.6036 477.437 74.4666C477.437 70.8467 477.955 66.7097 479.508 63.0898C481.062 59.4699 483.133 56.3671 486.24 53.2643C489.347 50.1615 492.972 48.093 497.632 46.5416C502.293 44.9902 506.436 44.4731 512.65 44.4731C515.756 44.4731 518.863 44.4731 521.453 44.9903C524.56 45.5074 527.667 46.5417 529.738 47.0588C532.845 47.5759 534.916 49.1273 537.505 50.6787C539.577 52.2301 542.166 53.7815 543.719 55.3328L537.505 62.0555Z" fill="white"/>
<path d="M589.806 69.2954C594.984 69.2954 600.162 69.8125 604.823 71.3639C609.483 72.9153 613.108 76.0181 616.733 79.1209C619.84 82.2236 622.947 85.8436 624.5 91.0149C626.054 95.669 627.607 100.84 627.607 106.529C627.607 112.734 627.089 117.906 624.5 122.043C622.947 126.697 619.84 130.317 616.733 133.937C613.626 137.039 608.965 140.142 604.823 141.693C600.162 143.245 594.984 143.762 589.806 143.762C584.628 143.762 579.449 143.245 574.789 141.693C570.128 140.142 566.504 137.039 562.879 133.937C559.254 130.834 556.665 126.18 555.111 122.043C553.558 117.906 552.004 112.217 552.004 106.529C552.004 100.323 552.522 95.1519 555.111 91.0149C556.665 86.3607 559.772 82.7408 562.879 79.1209C565.986 76.0181 570.646 72.9153 574.789 71.3639C578.931 70.3297 584.11 69.2954 589.806 69.2954ZM589.806 127.731C594.984 127.731 598.609 126.18 601.198 122.56C603.269 118.94 604.823 113.769 604.823 107.046C604.823 99.2889 603.269 94.1176 601.198 91.532C599.127 87.9121 594.984 86.3607 589.806 86.3607C584.628 86.3607 581.003 87.9121 578.414 91.532C575.824 95.1519 574.789 100.323 574.789 107.046C574.789 114.803 576.342 119.974 578.414 122.56C581.003 126.697 584.628 127.731 589.806 127.731Z" fill="white"/>
<path d="M710.46 85.3261V121.525C710.46 123.077 710.977 124.628 712.013 126.179C712.531 127.731 714.084 127.731 715.638 127.731C716.156 127.731 717.191 127.731 717.709 127.731C718.227 127.731 718.227 127.731 719.263 127.214C719.781 127.214 719.781 126.696 720.816 126.696C720.816 126.696 721.334 126.696 722.37 126.696C722.887 126.696 723.923 126.696 723.923 127.214C724.441 127.214 724.441 127.731 725.477 128.765L732.208 139.108C729.101 141.176 725.994 142.727 722.37 143.762C718.745 144.796 715.638 145.313 712.013 145.313C708.388 145.313 705.281 144.796 703.21 143.762C700.103 143.245 698.55 141.693 696.478 139.108C694.925 137.556 693.371 135.488 692.853 132.385C692.336 130.316 691.3 127.214 691.3 123.594V85.8433H665.926V143.762H642.106V85.3261L637.446 84.809C635.892 84.2919 634.339 84.2919 633.821 83.2577C633.303 82.7405 632.268 81.1891 632.268 79.6377V71.3637H642.106V66.7095C642.106 62.0554 642.624 58.4355 644.178 55.3327C645.731 52.2299 647.285 49.1272 650.392 47.0587C652.463 44.9901 655.57 42.4045 659.195 41.8874C662.819 40.336 666.962 39.8188 671.105 39.8188C672.658 39.8188 674.729 39.8188 676.283 39.8188C677.836 39.8188 679.39 40.336 680.943 40.336L680.426 50.6785C680.426 51.1957 680.426 52.2299 679.908 52.2299C679.908 52.7471 679.39 52.747 678.354 53.7813C677.836 53.7813 677.836 54.2984 676.801 54.2984C675.765 54.2984 675.247 54.2984 675.247 54.2984C673.176 54.2984 671.623 54.2985 670.069 54.8156C668.516 55.3327 666.962 55.3327 666.444 56.8841C665.926 57.4012 664.891 58.9526 664.373 60.504C663.855 62.0554 663.855 64.1239 663.855 66.7095V70.3294H691.818L696.478 52.2299C696.996 50.1614 698.55 49.1271 701.139 49.1271H712.531V70.3294H730.655V85.3261H712.531H710.46Z" fill="white"/>
<path d="M781.92 124.111C785.027 124.111 788.134 123.594 790.205 122.559C792.276 122.042 794.866 120.491 796.419 117.905C797.972 115.837 799.526 113.251 800.044 110.148C800.562 107.046 801.597 103.943 801.597 100.323V40.3359H825.417V101.357C825.417 107.563 824.9 113.251 822.31 118.422C820.239 123.594 817.132 128.248 813.507 131.868C809.883 135.488 805.222 138.59 800.044 140.659C794.866 142.727 788.652 143.762 781.92 143.762C775.188 143.762 768.974 143.245 763.796 140.659C758.618 138.59 753.957 135.488 750.332 131.868C746.708 128.248 743.601 123.594 741.529 118.422C739.458 113.251 738.422 107.046 738.422 101.357V40.3359H762.242V100.323C762.242 103.943 762.76 107.046 763.796 110.148C764.314 113.251 765.867 115.32 767.421 117.905C768.974 119.974 771.045 121.525 773.635 122.559C775.706 123.594 778.813 124.111 781.92 124.111Z" fill="white"/>
<path d="M859.594 78.6037C861.147 77.0523 862.701 76.5352 864.254 74.9838C865.808 74.4667 867.361 72.9153 868.915 71.881C870.468 71.3639 872.54 70.3297 874.093 70.3297C876.164 69.8125 878.754 69.8125 880.825 69.8125C884.45 69.8125 888.592 70.3296 891.181 71.881C894.288 73.4324 897.395 74.9838 898.949 78.0866C901.02 80.1551 902.574 83.2579 903.609 86.8778C904.127 90.4977 905.163 93.6004 905.163 98.2546V144.279H883.414V98.2546C883.414 94.6347 882.896 92.0491 881.343 89.9805C879.789 87.912 877.718 86.8778 873.575 86.8778C871.504 86.8778 868.915 87.3949 866.844 88.4292C864.772 88.9463 863.219 90.4977 860.63 92.0491V143.762H838.881V70.8468H852.344C855.451 70.8468 857.005 72.3982 857.523 74.4667L859.594 78.6037Z" fill="white"/>
<path d="M944 50.6787C944 52.2301 944 53.7815 943.482 55.3328C942.964 56.8842 941.929 58.4356 940.375 58.9527C938.822 60.5041 937.268 61.0212 935.715 62.0555C934.161 62.5726 932.608 62.5727 930.536 62.5727C928.983 62.5727 926.912 62.5726 925.358 62.0555C923.805 61.5384 922.251 60.5041 921.733 58.9527C920.18 57.4013 919.662 56.8842 918.626 55.3328C918.109 53.7815 918.109 52.2301 918.109 50.6787C918.109 49.1273 918.109 47.0588 918.626 45.5074C919.144 43.956 920.18 42.4046 921.733 41.8875C923.287 40.3361 923.805 39.819 925.358 38.7847C926.912 38.2676 928.465 38.2676 930.536 38.2676C932.09 38.2676 934.161 38.2676 935.715 38.7847C937.268 39.3018 938.822 40.3361 940.375 41.8875C941.929 43.4389 942.446 43.956 943.482 45.5074C943.482 47.0588 944 48.6102 944 50.6787ZM941.929 70.3296V143.245H920.18V70.3296H941.929Z" fill="white"/>
<path d="M533.363 215.643H570.128V259.081C564.95 262.701 559.254 265.804 553.558 267.355C547.862 268.907 541.648 269.941 534.916 269.941C526.631 269.941 518.863 268.39 511.614 265.804C504.882 263.218 498.668 259.598 494.008 254.944C488.829 250.29 485.205 244.602 482.616 238.396C480.026 232.191 478.473 224.951 478.473 217.711C478.473 209.954 479.509 203.231 482.098 196.509C484.687 190.303 488.312 184.615 492.972 179.961C497.633 175.306 503.329 171.687 510.06 169.101C516.792 166.515 524.042 165.481 532.327 165.481C536.47 165.481 540.612 165.998 544.237 166.515C547.862 167.032 551.487 168.067 554.594 169.618C557.701 170.652 560.808 172.204 563.397 173.755C565.986 175.306 568.575 177.375 570.646 179.443L563.915 189.786C562.879 191.337 561.325 192.372 559.772 192.889C558.218 193.406 556.147 192.889 554.076 191.855C552.005 190.82 550.451 189.786 548.898 188.752C547.344 187.718 545.273 187.2 543.719 186.683C542.166 186.166 540.094 185.649 538.023 185.649C535.952 185.649 533.881 185.132 531.291 185.132C526.631 185.132 523.006 186.166 519.381 187.718C515.757 189.269 512.65 191.337 510.06 194.44C507.471 197.543 505.4 200.646 504.364 204.783C502.811 208.92 502.293 213.057 502.293 218.228C502.293 223.917 502.811 228.571 504.364 232.708C505.918 236.845 507.989 240.465 510.578 243.567C513.167 246.67 516.792 248.739 520.417 250.29C524.042 251.842 528.702 252.359 533.363 252.359C536.47 252.359 539.059 251.842 541.13 251.324C543.201 250.807 545.791 249.773 547.862 249.256V233.742H537.505C535.952 233.742 534.916 233.225 533.881 232.708C532.845 231.673 532.845 231.156 532.845 229.605V215.643H533.363Z" fill="white"/>
<path d="M605.341 163.413V268.907H583.592V163.413H605.341Z" fill="white"/>
<path d="M654.016 194.958C659.713 194.958 664.373 195.992 669.034 197.543C673.694 199.095 677.319 201.68 680.943 204.783C684.05 207.886 686.64 212.023 688.711 216.677C690.782 221.331 691.3 226.502 691.3 232.191C691.3 237.879 690.264 243.05 688.711 247.705C687.157 252.359 684.568 256.496 680.943 259.599C677.837 262.701 673.694 265.287 669.034 267.356C664.373 269.424 659.195 269.941 654.016 269.941C648.32 269.941 643.142 268.907 639 267.356C634.857 265.804 630.714 263.219 627.089 259.599C623.982 256.496 621.393 252.359 619.322 247.705C617.769 243.05 616.733 237.879 616.733 232.191C616.733 226.502 617.769 221.331 619.322 216.677C620.876 212.023 623.465 207.886 627.089 204.783C630.196 201.68 634.339 199.095 639 197.543C643.66 195.992 648.32 194.958 654.016 194.958ZM654.016 253.91C659.195 253.91 662.82 252.359 664.891 248.739C667.48 245.119 668.516 239.948 668.516 232.708C668.516 225.468 667.48 220.297 664.891 216.677C662.302 213.057 658.677 211.506 654.016 211.506C648.838 211.506 645.213 213.057 642.624 216.677C640.035 220.297 639 225.468 639 232.708C639 239.948 640.035 245.119 642.624 248.739C645.213 252.359 648.838 253.91 654.016 253.91Z" fill="white"/>
<path d="M723.923 203.749C726.512 201.163 729.619 199.094 733.244 197.543C736.351 195.992 740.494 194.957 744.636 194.957C748.779 194.957 752.404 195.992 756.028 197.543C759.653 199.094 762.242 201.68 764.832 204.783C767.421 207.886 768.974 211.505 770.528 216.16C771.563 220.814 772.599 225.468 772.599 231.156C772.599 236.845 772.081 242.533 770.528 247.187C768.974 251.842 766.903 255.979 764.314 259.598C761.725 263.218 758.1 265.804 754.475 267.872C750.85 269.941 746.708 270.975 742.047 270.975C739.976 270.975 737.905 270.975 736.351 270.458C734.798 269.941 733.244 269.424 731.691 268.907C730.137 268.39 729.101 267.355 727.548 266.321C725.994 265.287 724.959 264.253 723.923 262.701L723.405 266.321C722.887 267.872 722.37 268.907 721.334 269.424C720.298 269.941 719.263 270.458 717.709 270.458H702.174V164.964H723.923V203.749ZM723.923 249.256C725.477 250.807 727.548 252.359 729.101 252.876C731.173 253.393 733.244 253.91 734.798 253.91C736.869 253.91 738.94 253.393 740.494 252.876C742.047 251.841 743.601 250.807 745.154 249.256C746.19 247.704 747.225 245.119 748.261 242.533C748.779 239.43 749.297 236.328 749.297 231.673C749.297 228.054 748.779 224.951 748.261 222.365C747.743 219.78 746.708 217.711 745.672 216.16C744.636 214.608 743.083 213.574 741.529 212.54C739.976 212.023 737.905 211.505 736.351 211.505C733.762 211.505 731.173 212.023 729.619 213.057C727.548 214.091 725.477 216.16 723.923 218.228V249.256Z" fill="white"/>
<path d="M781.402 206.334C786.063 202.197 790.723 199.612 795.901 197.543C801.08 195.475 807.293 194.44 812.99 194.44C817.65 194.44 821.275 194.958 824.9 196.509C828.524 198.06 831.631 200.129 833.703 202.714C836.292 205.3 837.845 208.403 839.399 212.023C840.952 215.643 841.47 219.263 841.47 223.4V268.907H831.631C829.56 268.907 828.007 268.39 826.971 267.873C825.935 267.356 824.9 266.321 824.382 264.253L822.828 260.116C820.757 261.667 819.204 263.219 817.65 264.253C816.097 265.287 814.025 266.321 812.472 267.356C810.918 268.39 808.847 268.907 806.776 269.424C804.704 269.941 802.633 269.941 800.044 269.941C796.937 269.941 793.83 269.424 790.723 268.39C788.134 267.356 785.545 266.321 783.991 264.77C781.92 263.219 780.366 261.15 779.331 258.564C778.295 255.979 777.777 253.393 777.777 249.773C777.777 247.188 778.295 244.602 779.849 242.016C781.402 239.431 783.473 236.845 786.58 234.776C789.687 232.708 794.348 230.639 799.526 229.088C805.222 227.537 811.954 226.502 820.239 226.502V223.4C820.239 219.263 819.204 216.16 817.65 214.091C816.097 212.023 813.507 210.989 809.883 210.989C807.294 210.989 805.222 211.506 803.669 212.023C802.115 212.54 800.562 213.057 799.008 214.091C797.973 214.608 796.419 215.643 795.383 216.16C794.348 216.677 792.794 217.194 791.241 217.194C789.687 217.194 788.652 216.677 787.616 216.16C786.58 215.643 785.545 214.608 785.027 213.574L781.402 206.334ZM820.757 239.431C816.614 239.431 812.99 239.948 809.883 240.465C807.294 240.982 804.704 241.499 803.151 242.533C801.597 243.568 800.562 244.085 799.526 245.636C799.008 246.67 798.49 247.705 798.49 249.256C798.49 251.842 799.008 253.393 800.562 254.427C802.115 255.462 803.669 255.979 806.776 255.979C809.365 255.979 811.954 255.462 814.025 254.427C816.097 253.393 818.168 251.842 820.239 249.773V239.431H820.757Z" fill="white"/>
<path d="M878.236 163.413V268.907H856.487V163.413H878.236Z" fill="white"/>
</svg>
