<svg width="110" height="32" viewBox="0 0 110 32" fill="none" xmlns="http://www.w3.org/2000/svg">
<g clip-path="url(#clip0_7558_38467)">
<path d="M48.8059 4.29939C48.7485 4.40248 48.6623 4.49083 48.5762 4.56446C48.49 4.62337 48.3751 4.65282 48.2603 4.65282C48.131 4.65282 48.0018 4.60864 47.9013 4.54974L47.4705 4.31412C47.2982 4.21104 47.1116 4.13741 46.9105 4.0785C46.6808 4.00487 46.4367 3.96069 46.1926 3.97542C45.7331 3.97542 45.3885 4.0785 45.1587 4.28467C44.929 4.49083 44.7998 4.80008 44.8141 5.10933C44.8141 5.3155 44.8859 5.50694 45.0152 5.6542C45.1731 5.81619 45.3454 5.934 45.5464 6.02236C45.7905 6.14017 46.049 6.24325 46.3075 6.31688C46.5946 6.40524 46.8818 6.50832 47.1834 6.6114C47.4849 6.71449 47.7721 6.84702 48.0592 6.99429C48.3464 7.14155 48.5905 7.31826 48.8203 7.55388C49.05 7.7895 49.2367 8.0693 49.3515 8.37855C49.4951 8.7467 49.5669 9.14431 49.5526 9.54192C49.5526 10.0279 49.4664 10.5138 49.2941 10.9556C49.1218 11.3827 48.8777 11.7803 48.5618 12.1043C48.2172 12.443 47.8151 12.708 47.3557 12.87C46.8387 13.0615 46.2931 13.1646 45.7331 13.1498C45.3885 13.1498 45.0582 13.1204 44.728 13.0467C44.3834 12.9731 44.0531 12.8848 43.7229 12.7522C43.407 12.6344 43.1054 12.4724 42.8182 12.2957C42.5454 12.1337 42.3013 11.9276 42.0859 11.7067L42.8182 10.5286C42.8757 10.4402 42.9618 10.3666 43.048 10.3224C43.1485 10.2635 43.249 10.234 43.3639 10.234C43.5218 10.234 43.6798 10.293 43.809 10.3813C43.9526 10.4844 44.1249 10.5875 44.3116 10.6906C44.5126 10.8084 44.728 10.9262 44.9577 10.9998C45.2305 11.1029 45.5321 11.1471 45.8193 11.1471C46.2644 11.1471 46.609 11.044 46.8675 10.8378C47.1259 10.6317 47.2408 10.3077 47.2408 9.88062C47.2551 9.65972 47.1834 9.43883 47.0398 9.26212C46.8962 9.0854 46.7095 8.95287 46.4941 8.84978C46.25 8.73197 45.9916 8.64362 45.7331 8.56999C45.4459 8.49636 45.1587 8.408 44.8572 8.30492C44.5557 8.20183 44.2685 8.08402 43.9813 7.95149C43.6941 7.80422 43.45 7.61278 43.2347 7.37717C43.0049 7.12682 42.8182 6.8323 42.7034 6.50832C42.5598 6.09599 42.488 5.6542 42.5023 5.22714C42.5023 4.81481 42.5885 4.40248 42.7464 4.03432C42.9044 3.63672 43.1485 3.28329 43.45 2.98876C43.7803 2.66479 44.168 2.41444 44.5987 2.25245C45.1013 2.06101 45.6182 1.97266 46.1495 1.97266C46.4654 1.97266 46.7813 2.00211 47.0972 2.04629C47.3987 2.09047 47.6859 2.17882 47.9731 2.28191C48.2459 2.38499 48.5044 2.51753 48.7485 2.66479C48.9782 2.79732 49.1936 2.95931 49.3946 3.15075L48.8059 4.29939Z" fill="white"/>
<path d="M54.248 5.10938C54.7793 5.10938 55.3106 5.19773 55.8131 5.38917C56.2726 5.56589 56.6747 5.83096 57.0336 6.18439C57.3783 6.53781 57.6511 6.96487 57.8234 7.43611C58.0244 7.96625 58.1106 8.52585 58.1106 9.10017C58.1106 9.67449 58.0244 10.2341 57.8234 10.779C57.6511 11.2502 57.3783 11.692 57.0336 12.0454C56.689 12.3988 56.2726 12.6639 55.8131 12.8406C55.3106 13.0321 54.7793 13.1351 54.248 13.1204C53.7024 13.1204 53.1711 13.0321 52.6685 12.8406C52.209 12.6639 51.7926 12.3841 51.448 12.0454C51.1034 11.692 50.8306 11.2502 50.6583 10.779C50.4572 10.2488 50.3711 9.67449 50.3711 9.10017C50.3711 8.54058 50.4572 7.96625 50.6583 7.43611C50.8306 6.96487 51.1034 6.53782 51.448 6.16966C51.807 5.81623 52.2234 5.55116 52.6829 5.37445C53.1711 5.19773 53.7024 5.10938 54.248 5.10938ZM54.248 11.3975C54.7649 11.3975 55.1526 11.206 55.3967 10.8379C55.6408 10.4697 55.7701 9.88066 55.7701 9.1149C55.7701 8.34914 55.6408 7.77481 55.3967 7.39193C55.1526 7.00905 54.7649 6.83234 54.248 6.83234C53.7167 6.83234 53.3147 7.02378 53.0706 7.39193C52.8265 7.76009 52.6972 8.33441 52.6972 9.1149C52.6972 9.88066 52.8265 10.455 53.0706 10.8379C53.3147 11.2207 53.7167 11.3975 54.248 11.3975Z" fill="white"/>
<path d="M66.8277 6.84738V10.7056C66.8277 10.8676 66.8708 11.0149 66.9569 11.1474C67.0431 11.2652 67.1867 11.3389 67.3303 11.3241C67.4021 11.3241 67.4739 11.3241 67.5457 11.2947C67.5887 11.28 67.6462 11.2652 67.6892 11.2358L67.8041 11.1769C67.8472 11.1622 67.8903 11.1474 67.9333 11.1474C67.9908 11.1474 68.0482 11.1622 68.0913 11.1916C68.1344 11.2358 68.1774 11.28 68.2205 11.3389L68.9098 12.4581C68.6082 12.679 68.278 12.8557 67.919 12.9587C67.5457 13.0766 67.1723 13.1355 66.7846 13.1355C66.4544 13.1355 66.1385 13.0913 65.8369 12.9735C65.3057 12.782 64.8893 12.3403 64.7169 11.7954C64.6164 11.5009 64.5734 11.1769 64.5734 10.8529V6.84738H61.8595V13.0177H59.5908V6.83266L59.0882 6.72958C58.9447 6.70012 58.8011 6.64122 58.6718 6.53814C58.557 6.44978 58.4995 6.30252 58.5139 6.16998V5.25696H59.5764V4.81517C59.5764 4.40284 59.6482 3.99051 59.7918 3.60763C59.9211 3.2542 60.1221 2.94495 60.3949 2.67988C60.6677 2.4148 60.998 2.22336 61.3426 2.09083C61.759 1.94357 62.1898 1.86994 62.6205 1.88466C62.7928 1.88466 62.9652 1.88466 63.1375 1.91411C63.3098 1.94357 63.4677 1.97302 63.6257 2.0172L63.5826 3.15111C63.5826 3.22474 63.5539 3.28365 63.5252 3.35728C63.4964 3.41618 63.439 3.46036 63.3959 3.48982C63.3385 3.51927 63.2811 3.54872 63.2236 3.56345C63.1662 3.57817 63.0944 3.57817 63.037 3.57817C62.8646 3.57817 62.678 3.5929 62.5057 3.63708C62.3621 3.66653 62.2185 3.74016 62.118 3.85797C62.0031 3.97578 61.9313 4.10832 61.8882 4.2703C61.8308 4.47647 61.8021 4.68264 61.8021 4.90353V5.27168H64.7026L65.1621 3.35728C65.2195 3.12166 65.3918 3.00385 65.6646 3.00385H66.8421V5.27168H68.7231V6.86211L66.8277 6.84738Z" fill="white"/>
<path d="M80.8253 5.24129L78.4705 13.0167H76.6325C76.5464 13.0167 76.4602 12.9873 76.3884 12.9284C76.3023 12.8547 76.2592 12.7516 76.2305 12.6338L75.1535 8.76085C75.0961 8.58413 75.053 8.40742 75.01 8.24543C74.9669 8.06872 74.9238 7.90673 74.8951 7.73001C74.8664 7.90673 74.8233 8.08344 74.7802 8.26016C74.7371 8.43687 74.6941 8.61358 74.6366 8.7903L73.5453 12.6486C73.5023 12.8842 73.3012 13.0462 73.0715 13.0314H71.3197L68.9648 5.25601H70.7597C70.9033 5.25601 71.0469 5.28547 71.1618 5.37382C71.2623 5.44746 71.3484 5.55054 71.3771 5.66835L72.1382 9.14373C72.1956 9.4088 72.253 9.65914 72.3105 9.90949C72.3535 10.1598 72.3966 10.4102 72.4397 10.6605C72.4971 10.4102 72.5689 10.1598 72.6407 9.90949C72.7125 9.65914 72.7843 9.4088 72.8705 9.14373L73.8182 5.65362C73.8612 5.53581 73.933 5.43273 74.0335 5.3591C74.1484 5.28547 74.2776 5.24129 74.4069 5.24129H75.412C75.5556 5.24129 75.6992 5.27074 75.8141 5.3591C75.9146 5.43273 76.0007 5.53581 76.0294 5.65362L76.9341 9.14373C77.0058 9.4088 77.0776 9.65914 77.1494 9.90949C77.2212 10.1598 77.2787 10.4102 77.3505 10.6605C77.3935 10.4102 77.4366 10.1598 77.494 9.90949C77.5515 9.65914 77.6089 9.39407 77.6664 9.129L78.4705 5.6389C78.5135 5.52109 78.5853 5.418 78.6858 5.34437C78.8007 5.27074 78.9299 5.22656 79.0735 5.22656L80.8253 5.24129Z" fill="white"/>
<path d="M81.3572 6.31708C81.8024 5.90474 82.3193 5.59549 82.8793 5.38933C83.4536 5.18316 84.0567 5.08008 84.6741 5.08008C85.0906 5.08008 85.5213 5.15371 85.909 5.30097C86.2536 5.44823 86.5839 5.6544 86.8423 5.9342C87.1008 6.21399 87.3018 6.53797 87.431 6.90613C87.5746 7.30373 87.6464 7.71607 87.6321 8.14312V13.0028H86.5982C86.4259 13.0175 86.268 12.988 86.11 12.9144C85.9808 12.8261 85.8803 12.6935 85.8372 12.5315L85.6793 12.1045C85.4926 12.2665 85.3059 12.4137 85.1336 12.5463C84.9613 12.6641 84.7747 12.7819 84.588 12.8702C84.4013 12.9586 84.2003 13.0175 83.9849 13.0617C83.7552 13.1058 83.5111 13.1206 83.2813 13.1206C82.9654 13.1206 82.6495 13.0764 82.3336 12.988C82.0752 12.8997 81.8311 12.7671 81.6157 12.5757C81.4147 12.3843 81.2567 12.1634 81.1562 11.8983C81.0413 11.6038 80.9839 11.2945 80.9983 10.9706C80.9983 10.676 81.0701 10.3815 81.1993 10.1164C81.3716 9.79246 81.6157 9.52739 81.9029 9.33595C82.3193 9.07087 82.7788 8.86471 83.267 8.7469C83.9706 8.57018 84.6885 8.48183 85.4208 8.48183V8.14312C85.4208 7.68661 85.3347 7.36264 85.148 7.15647C84.947 6.9503 84.6598 6.83249 84.3726 6.84722C84.1572 6.84722 83.9275 6.87667 83.7121 6.93558C83.5542 6.99448 83.3962 7.05339 83.2526 7.14174C83.1234 7.21537 82.9941 7.28901 82.8649 7.34791C82.7213 7.40682 82.5634 7.43627 82.4054 7.43627C82.2618 7.43627 82.1326 7.39209 82.0034 7.31846C81.9029 7.24483 81.8167 7.14174 81.7449 7.03866L81.3572 6.31708ZM85.4352 9.85136C85.0618 9.86609 84.6885 9.89554 84.3152 9.96917C84.0711 10.0134 83.8413 10.087 83.6259 10.1901C83.4824 10.2637 83.3531 10.3668 83.267 10.4993C83.1952 10.6171 83.1665 10.7349 83.1665 10.8675C83.1665 11.1325 83.2383 11.324 83.3818 11.4271C83.5685 11.5449 83.7839 11.6038 83.9993 11.5891C84.2577 11.5891 84.5306 11.5449 84.7603 11.4271C85.0044 11.2945 85.2341 11.1325 85.4208 10.9116L85.4352 9.85136Z" fill="white"/>
<path d="M91.2072 6.43542C91.4082 6.05254 91.681 5.71383 92.0113 5.44876C92.3128 5.21314 92.6861 5.08061 93.0595 5.09533C93.361 5.08061 93.6482 5.16896 93.8923 5.34568L93.7487 7.05392C93.7343 7.14227 93.6913 7.2159 93.6338 7.27481C93.562 7.31899 93.4902 7.33371 93.4041 7.33371C93.361 7.33371 93.3179 7.33371 93.2461 7.33371L93.0451 7.31899L92.8297 7.28953C92.7723 7.28953 92.7005 7.27481 92.6431 7.27481C92.3559 7.26008 92.0687 7.34844 91.8533 7.53988C91.6379 7.74605 91.4656 8.01112 91.3508 8.29092V13.0033H89.082V5.2426H90.4318C90.5323 5.2426 90.6184 5.2426 90.719 5.27205C90.7908 5.28677 90.8482 5.31623 90.9056 5.3604C90.9631 5.40458 90.9918 5.46349 91.0205 5.52239C91.0492 5.61075 91.0779 5.68438 91.0923 5.77274L91.2072 6.43542Z" fill="white"/>
<path d="M96.3912 9.54224C96.463 10.1902 96.6497 10.6614 96.9656 10.956C97.2959 11.2505 97.7266 11.4125 98.1718 11.3977C98.4015 11.3977 98.6312 11.3683 98.8466 11.2947C99.0189 11.2357 99.1912 11.1621 99.3492 11.0738L99.7512 10.8529C99.8661 10.794 100.01 10.7498 100.139 10.7498C100.297 10.7351 100.455 10.8234 100.541 10.956L101.201 11.7953C100.986 12.0604 100.728 12.2813 100.44 12.4727C100.182 12.6347 99.8948 12.782 99.6076 12.8851C99.3205 12.9882 99.0333 13.0471 98.7461 13.0912C98.4733 13.1207 98.2005 13.1502 97.9277 13.1502C97.4107 13.1502 96.9082 13.0618 96.4343 12.8851C95.9748 12.7084 95.5584 12.4433 95.2138 12.0899C94.8548 11.7217 94.5677 11.2799 94.381 10.794C94.1656 10.2196 94.0651 9.60114 94.0795 8.98264C94.0795 8.48195 94.1656 7.98126 94.3379 7.51003C94.6682 6.58228 95.3718 5.84597 96.262 5.46309C97.1953 5.08021 98.2435 5.05075 99.2056 5.38945C99.6076 5.53672 99.981 5.77234 100.283 6.08159C100.584 6.40556 100.828 6.78844 100.986 7.20078C101.158 7.68674 101.245 8.18743 101.245 8.70285C101.245 8.85011 101.245 8.98264 101.216 9.12991C101.201 9.21826 101.173 9.30662 101.13 9.39498C101.101 9.45388 101.044 9.49806 100.972 9.52751C100.886 9.55696 100.799 9.57169 100.713 9.55697L96.3912 9.54224ZM99.2343 8.18743C99.2343 8.01072 99.2056 7.81928 99.1625 7.64256C99.1194 7.46585 99.0476 7.31859 98.9328 7.17132C98.8179 7.02406 98.6743 6.92098 98.5164 6.83262C98.3153 6.74426 98.1143 6.70009 97.8989 6.70009C97.5256 6.68536 97.1666 6.81789 96.8938 7.08297C96.621 7.39222 96.463 7.76037 96.4056 8.1727L99.2343 8.18743Z" fill="white"/>
<path d="M47.3565 25.6535C47.658 25.6535 47.9595 25.5946 48.2467 25.4915C48.5052 25.3884 48.7206 25.2264 48.9072 25.0055C49.0939 24.7846 49.2375 24.5196 49.3236 24.2398C49.4242 23.9011 49.4672 23.5624 49.4672 23.2089V16.7441H51.937V23.2089C51.937 23.8422 51.8365 24.4607 51.6211 25.0497C51.42 25.5946 51.1041 26.0805 50.7165 26.4929C50.3144 26.9052 49.8118 27.2292 49.2806 27.4354C48.0457 27.8919 46.696 27.8919 45.4611 27.4354C44.9298 27.2292 44.4272 26.9052 44.0252 26.4929C43.6231 26.0805 43.3216 25.5946 43.1206 25.0497C42.9052 24.4607 42.8047 23.8422 42.8047 23.2089V16.7441H45.2744V23.2089C45.2744 23.5624 45.3175 23.9011 45.418 24.2398C45.5042 24.5196 45.6478 24.7846 45.8344 25.0055C46.0211 25.2117 46.2365 25.3884 46.4949 25.4915C46.7534 25.6093 47.0549 25.6535 47.3565 25.6535Z" fill="white"/>
<path d="M55.4414 20.7186C55.585 20.586 55.743 20.4535 55.9009 20.3357C56.0589 20.2179 56.2312 20.1148 56.4035 20.0264C56.5901 19.9381 56.7768 19.8792 56.9778 19.835C57.1932 19.7908 57.423 19.7614 57.6527 19.7614C58.026 19.7466 58.3994 19.835 58.7583 19.9823C59.0742 20.1295 59.3471 20.3357 59.5624 20.6008C59.7922 20.8805 59.9501 21.1898 60.065 21.5432C60.1799 21.9261 60.2373 22.3237 60.2373 22.7213V27.6693H57.9686V22.736C57.983 22.4268 57.8968 22.1028 57.7101 21.8525C57.5235 21.6316 57.2363 21.5138 56.9635 21.5285C56.7194 21.5285 56.4896 21.5874 56.2599 21.6905C56.0301 21.8083 55.8148 21.9556 55.6281 22.1323V27.6693H53.3594V19.8792H54.7666C55.025 19.8644 55.2548 20.0264 55.3266 20.2621L55.4414 20.7186Z" fill="white"/>
<path d="M64.2282 17.7602C64.2282 17.9369 64.1851 18.1136 64.1133 18.2756C64.0415 18.4376 63.941 18.5848 63.8118 18.7026C63.6826 18.8204 63.539 18.9235 63.3667 18.9972C63.1944 19.0708 63.0077 19.1002 62.8354 19.1002C62.6631 19.1002 62.4764 19.0708 62.3185 18.9972C62.1605 18.9235 62.0169 18.8204 61.8877 18.7026C61.7728 18.5848 61.6723 18.4376 61.6005 18.2756C61.5287 18.1136 61.5 17.9369 61.5 17.7602C61.5 17.5834 61.5287 17.392 61.6005 17.23C61.6723 17.068 61.7585 16.9208 61.8877 16.7882C62.0169 16.6557 62.1605 16.5673 62.3185 16.4937C62.4764 16.4201 62.6631 16.3906 62.8354 16.3906C63.0221 16.3906 63.2087 16.4201 63.3667 16.4937C63.5246 16.5673 63.6826 16.6557 63.8118 16.7882C63.941 16.9208 64.0415 17.068 64.1133 17.23C64.1851 17.392 64.2282 17.5687 64.2282 17.7602ZM63.9985 19.8807V27.6562H61.7297V19.8807H63.9985Z" fill="white"/>
<path d="M72.7152 19.8809L69.786 27.6563H67.7183L64.7891 19.8809H66.6701C66.8137 19.8809 66.9573 19.9103 67.0721 19.9987C67.1726 20.0723 67.2588 20.1754 67.2875 20.2932L68.3357 23.7833C68.4362 24.0631 68.508 24.3429 68.5798 24.608C68.6516 24.873 68.7091 25.1528 68.7665 25.4179C68.8814 24.8583 69.025 24.3134 69.2116 23.7833L70.3029 20.2932C70.346 20.1754 70.4178 20.0723 70.5183 19.9987C70.6332 19.925 70.7624 19.8809 70.8916 19.8809H72.7152Z" fill="white"/>
<path d="M75.067 24.1811C75.1388 24.829 75.3255 25.3003 75.6414 25.5948C75.9717 25.8893 76.4024 26.0513 76.8475 26.0366C77.0773 26.0366 77.307 26.0071 77.5224 25.9335C77.6947 25.8746 77.867 25.801 78.025 25.7126L78.427 25.4917C78.5419 25.4328 78.6855 25.3886 78.8147 25.3886C78.9727 25.3739 79.1306 25.4622 79.2168 25.5948L79.8773 26.4194C79.6619 26.6845 79.4034 26.9054 79.1163 27.0969C78.8578 27.2588 78.5706 27.4061 78.2834 27.5092C77.9963 27.6123 77.7091 27.6712 77.4219 27.7154C77.1491 27.7448 76.8763 27.7743 76.6034 27.7743C76.0865 27.7743 75.584 27.6859 75.1101 27.5092C74.6506 27.3325 74.2342 27.0674 73.8896 26.714C73.5306 26.3458 73.2435 25.904 73.0568 25.4033C72.8414 24.829 72.7409 24.2105 72.7553 23.592C72.7553 23.0913 72.8414 22.5906 73.0137 22.1194C73.344 21.1917 74.0476 20.4553 74.9378 20.0725C75.8711 19.6896 76.9193 19.6601 77.8814 19.9988C78.2834 20.1461 78.6568 20.3817 78.9583 20.691C79.2598 21.0149 79.5039 21.3978 79.6619 21.8102C79.8342 22.2961 79.9204 22.7968 79.9204 23.3122C79.9204 23.4595 79.9204 23.592 79.8916 23.7393C79.8773 23.8276 79.8486 23.916 79.8055 24.0044C79.7768 24.0633 79.7193 24.1074 79.6475 24.1369C79.5614 24.1663 79.4752 24.1811 79.3891 24.1663L75.067 24.1811ZM77.9101 22.841C77.9101 22.6643 77.8814 22.4728 77.8383 22.2961C77.7952 22.1194 77.7234 21.9721 77.6086 21.8249C77.4937 21.6776 77.3501 21.5745 77.1922 21.4862C76.9911 21.3978 76.7901 21.3536 76.5747 21.3536C76.2014 21.3389 75.8424 21.4714 75.5696 21.7365C75.2968 22.0458 75.1388 22.4139 75.0814 22.8263L77.9101 22.841Z" fill="white"/>
<path d="M83.1967 21.0878C83.3977 20.7049 83.6705 20.3662 84.0008 20.1011C84.3023 19.8655 84.6757 19.733 85.049 19.7477C85.3505 19.733 85.6377 19.8213 85.8818 19.998L85.7382 21.7063C85.7239 21.7946 85.6808 21.8682 85.6234 21.9271C85.5516 21.9713 85.4798 21.9861 85.3936 21.9861C85.3505 21.9861 85.3075 21.9861 85.2357 21.9713L85.0346 21.9566L84.8336 21.9419C84.7762 21.9419 84.7044 21.9271 84.6469 21.9271C84.3598 21.9124 84.0726 22.0008 83.8572 22.1922C83.6418 22.3984 83.4695 22.6635 83.3546 22.9433V27.6704H81.0859V19.8802H82.4357C82.5362 19.8802 82.6223 19.8802 82.7228 19.9097C82.7946 19.9244 82.8521 19.9538 82.9095 19.998C82.9669 20.0422 82.9957 20.1011 83.0244 20.16C83.0531 20.2484 83.0818 20.322 83.0962 20.4104L83.1967 21.0878Z" fill="white"/>
<path d="M91.4665 21.589C91.4235 21.6773 91.3517 21.7362 91.2799 21.7951C91.2081 21.8393 91.1219 21.854 91.0214 21.854C90.9065 21.854 90.806 21.8246 90.7055 21.7804L90.3609 21.6332C90.2173 21.5743 90.0881 21.5301 89.9445 21.4859C89.7722 21.4417 89.5855 21.4123 89.4132 21.4123C89.1835 21.3975 88.9537 21.4564 88.7527 21.5743C88.6091 21.6773 88.5229 21.854 88.5229 22.0455C88.5229 22.178 88.566 22.3106 88.6665 22.3989C88.7814 22.502 88.925 22.5904 89.0686 22.6493C89.2553 22.7229 89.4419 22.7965 89.6286 22.8554C89.844 22.9143 90.0594 22.988 90.2747 23.0763C90.4901 23.15 90.7055 23.253 90.9209 23.3561C91.1219 23.4592 91.3086 23.5917 91.4809 23.7537C91.6532 23.9157 91.7824 24.1072 91.8829 24.328C91.9834 24.5784 92.0409 24.8582 92.0265 25.138C92.0265 25.5061 91.9547 25.8596 91.8255 26.1983C91.6819 26.5223 91.4809 26.8168 91.2224 27.0377C90.9209 27.288 90.5906 27.4795 90.2173 27.5825C89.7722 27.7151 89.3127 27.7887 88.8532 27.774C88.5947 27.774 88.3363 27.7445 88.0778 27.7003C87.8194 27.6562 87.5753 27.5825 87.3312 27.4942C87.1014 27.4205 86.8717 27.3175 86.6563 27.1849C86.4696 27.0818 86.2973 26.9493 86.125 26.802L86.6563 25.9479C86.7137 25.8448 86.7855 25.7712 86.8717 25.7123C86.9722 25.6534 87.1014 25.624 87.2163 25.624C87.3455 25.624 87.4604 25.6534 87.5753 25.7123L87.9199 25.9038C88.0635 25.9774 88.207 26.051 88.3506 26.0952C88.5517 26.1541 88.7527 26.1983 88.9681 26.1835C89.1117 26.1835 89.2696 26.1688 89.4132 26.1246C89.5137 26.0952 89.6142 26.051 89.7004 25.9774C89.8296 25.8596 89.9158 25.6976 89.9158 25.5061C89.9158 25.3589 89.8583 25.2263 89.7578 25.1233C89.6429 25.0202 89.4994 24.9318 89.3558 24.8582C89.1691 24.7846 88.9824 24.7109 88.7958 24.652C88.5804 24.5931 88.365 24.5195 88.1496 24.4459C87.9342 24.3575 87.7188 24.2691 87.5035 24.1513C87.2881 24.0335 87.1014 23.901 86.9435 23.7243C86.7712 23.5476 86.6276 23.3267 86.5414 23.091C86.4265 22.7965 86.3835 22.4873 86.3835 22.178C86.3835 21.854 86.4409 21.5301 86.5701 21.2355C86.6994 20.941 86.886 20.6612 87.1301 20.4551C87.4029 20.2194 87.7188 20.028 88.0635 19.9249C88.4942 19.7777 88.9394 19.7188 89.3845 19.7188C89.6573 19.7188 89.9158 19.7482 90.1742 19.7924C90.4183 19.8366 90.6624 19.9102 90.8922 19.9985C91.1076 20.0869 91.3086 20.19 91.5096 20.3225C91.6819 20.4403 91.8542 20.5729 91.9978 20.7201L91.4665 21.589Z" fill="white"/>
<path d="M95.7165 17.7602C95.7165 17.9369 95.6734 18.1136 95.6016 18.2756C95.5298 18.4376 95.4293 18.5848 95.3001 18.7026C95.1708 18.8204 95.0272 18.9235 94.8549 18.9972C94.6826 19.0708 94.496 19.1002 94.3237 19.1002C94.1514 19.1002 93.9647 19.0708 93.8067 18.9972C93.6488 18.9235 93.5052 18.8204 93.376 18.7026C93.2611 18.5848 93.1606 18.4376 93.0888 18.2756C93.017 18.1136 92.9883 17.9369 92.9883 17.7602C92.9883 17.5834 93.017 17.392 93.0888 17.23C93.1606 17.068 93.2467 16.9208 93.376 16.7882C93.5052 16.6557 93.6488 16.5673 93.8067 16.4937C93.9647 16.4201 94.1514 16.3906 94.3237 16.3906C94.5103 16.3906 94.697 16.4201 94.8549 16.4937C95.0129 16.5673 95.1708 16.6557 95.3001 16.7882C95.4293 16.9208 95.5298 17.068 95.6016 17.23C95.6734 17.392 95.7165 17.5687 95.7165 17.7602ZM95.4724 19.8807V27.6562H93.2037V19.8807H95.4724Z" fill="white"/>
<path d="M99.7804 27.7733C99.4501 27.7733 99.1342 27.7291 98.8327 27.6113C98.3014 27.4199 97.885 26.9781 97.7127 26.4332C97.6122 26.1387 97.5691 25.8147 97.5691 25.4907V21.4852H96.923C96.6932 21.4999 96.5065 21.3232 96.4922 21.0876C96.4922 21.0729 96.4922 21.0434 96.4922 21.0287V20.1157L97.6983 19.8801L98.1435 17.9804C98.2009 17.7448 98.3732 17.627 98.646 17.627H99.8235V19.8948H101.704V21.4852H99.8235V25.3435C99.8235 25.5055 99.8665 25.6527 99.9527 25.7853C100.039 25.9031 100.182 25.9767 100.326 25.962C100.398 25.962 100.47 25.962 100.541 25.9325C100.584 25.9178 100.642 25.9031 100.685 25.8736L100.8 25.8147C100.843 25.8 100.886 25.7853 100.929 25.7853C100.987 25.7853 101.044 25.8 101.101 25.8294C101.144 25.8736 101.188 25.9178 101.231 25.9767L101.92 27.0812C101.618 27.3021 101.288 27.4788 100.929 27.5819C100.541 27.7144 100.154 27.7733 99.7804 27.7733Z" fill="white"/>
<path d="M109.874 19.8797L105.825 29.6727C105.725 29.9819 105.423 30.1734 105.107 30.1292H103.413L104.877 26.9778L101.848 19.8797H103.844C103.987 19.865 104.131 19.9092 104.246 19.9976C104.332 20.0712 104.404 20.1743 104.461 20.2774L105.71 23.6349C105.825 23.9442 105.926 24.2534 105.997 24.5774L106.155 24.0914C106.213 23.9294 106.27 23.7675 106.328 23.6202L107.448 20.2921C107.491 20.1743 107.577 20.0712 107.677 19.9976C107.778 19.9239 107.907 19.8797 108.036 19.8797H109.874Z" fill="white"/>
<path d="M35.3503 8.17241L20.575 0.117188V4.77066L30.3103 10.2488L20.575 15.3441V19.9386L26.8067 16.6841V22.6188L17.8468 27.1839L17.8324 27.1692L17.818 27.1839L8.85808 22.6188V16.6841L15.0899 19.9386V15.3293L5.3545 10.2488L15.0899 4.77066V0.117188L0.0273438 8.3344V12.0601L4.85194 14.593V25.1517L17.8324 31.7638L30.8129 25.1517V14.593L35.3503 12.2074V8.17241Z" fill="white"/>
</g>
<defs>
<clipPath id="clip0_7558_38467">
<rect width="110" height="32" fill="white"/>
</clipPath>
</defs>
</svg>
