<svg width="39" height="48" viewBox="0 0 39 48" fill="none" xmlns="http://www.w3.org/2000/svg">
<g clip-path="url(#clip0_8548_18058)">
<path d="M5.90876 32.9964C5.86727 33.0619 5.82578 33.1156 5.77837 33.1453C5.73095 33.1811 5.67168 33.193 5.60055 33.193C5.53536 33.193 5.47016 33.1751 5.39311 33.1334C5.32198 33.0917 5.239 33.05 5.14417 32.9964C5.04934 32.9487 4.94265 32.9011 4.82411 32.8594C4.70557 32.8177 4.56924 32.7998 4.41514 32.7998C4.15435 32.7998 3.95283 32.8534 3.82836 32.9666C3.69796 33.0798 3.63277 33.2347 3.63277 33.4253C3.63277 33.5505 3.67426 33.6517 3.75131 33.7292C3.82836 33.8126 3.92912 33.8781 4.05952 33.9377C4.18398 33.9973 4.33216 34.0509 4.49219 34.0986C4.65222 34.1462 4.81818 34.1998 4.99007 34.2594C5.16195 34.319 5.32791 34.3905 5.48794 34.4679C5.64797 34.5513 5.79615 34.6526 5.92062 34.7777C6.04508 34.9028 6.14584 35.0577 6.22882 35.2364C6.30587 35.4152 6.34736 35.6356 6.34736 35.8858C6.34736 36.1658 6.29995 36.428 6.19919 36.6782C6.10435 36.9224 5.9621 37.1369 5.77837 37.3216C5.59463 37.5063 5.3694 37.6493 5.09675 37.7505C4.82411 37.8518 4.52183 37.9054 4.17806 37.9054C3.98839 37.9054 3.79872 37.8876 3.60313 37.8459C3.40754 37.8042 3.21787 37.7505 3.03413 37.679C2.85039 37.6076 2.67851 37.5241 2.51848 37.4288C2.35845 37.3335 2.2162 37.2203 2.09766 37.1012L2.51255 36.4399C2.54811 36.3922 2.5896 36.3505 2.64295 36.3207C2.69629 36.2909 2.75556 36.2731 2.82076 36.2731C2.90374 36.2731 2.98672 36.2969 3.0697 36.3505C3.15267 36.4041 3.24751 36.4637 3.35419 36.5233C3.46088 36.5888 3.58535 36.6484 3.72167 36.696C3.858 36.7497 4.02395 36.7735 4.21362 36.7735C4.46848 36.7735 4.67 36.7199 4.80633 36.6067C4.94858 36.4935 5.0197 36.3148 5.0197 36.0705C5.0197 35.9275 4.97821 35.8143 4.90116 35.725C4.82411 35.6356 4.72335 35.5641 4.59295 35.5045C4.46848 35.445 4.32031 35.3973 4.16028 35.3496C4.00024 35.3079 3.83429 35.2543 3.6624 35.2007C3.49052 35.1471 3.33049 35.0816 3.16453 34.9981C3.0045 34.9207 2.86225 34.8135 2.73185 34.6824C2.60738 34.5513 2.50662 34.3905 2.42364 34.1998C2.34659 34.0032 2.3051 33.7649 2.3051 33.4849C2.3051 33.2585 2.35252 33.0322 2.44143 32.8177C2.53033 32.5973 2.66665 32.4066 2.84447 32.2338C3.02228 32.0611 3.24158 31.93 3.49644 31.8287C3.75724 31.7274 4.04766 31.6738 4.3855 31.6738C4.56924 31.6738 4.75298 31.6857 4.93079 31.7155C5.10861 31.7453 5.27456 31.787 5.4346 31.8466C5.59463 31.9062 5.7428 31.9717 5.87913 32.0492C6.01545 32.1266 6.13992 32.216 6.2466 32.3172L5.90876 32.9964Z" fill="white"/>
<path d="M9.0097 33.4512C9.33568 33.4512 9.63797 33.5048 9.90468 33.6061C10.1714 33.7073 10.4026 33.8563 10.5982 34.0469C10.7937 34.2376 10.9419 34.4699 11.0486 34.7499C11.1553 35.024 11.2086 35.3338 11.2086 35.6733C11.2086 36.0189 11.1553 36.3287 11.0486 36.6087C10.9419 36.8887 10.7937 37.121 10.5982 37.3176C10.4026 37.5142 10.1773 37.6632 9.90468 37.7644C9.63797 37.8717 9.33568 37.9193 9.0097 37.9193C8.67778 37.9193 8.38143 37.8657 8.10878 37.7644C7.83613 37.6632 7.60498 37.5083 7.40938 37.3176C7.21379 37.121 7.06561 36.8887 6.953 36.6087C6.84631 36.3287 6.79297 36.0189 6.79297 35.6733C6.79297 35.3278 6.84631 35.024 6.953 34.7499C7.05969 34.4759 7.21379 34.2435 7.40938 34.0469C7.60498 33.8503 7.83613 33.7073 8.10878 33.6061C8.38143 33.5048 8.67778 33.4512 9.0097 33.4512ZM9.0097 36.9602C9.30605 36.9602 9.52535 36.8529 9.6676 36.6444C9.80985 36.4359 9.87505 36.1142 9.87505 35.6853C9.87505 35.2563 9.80392 34.9346 9.6676 34.7261C9.52535 34.5176 9.31198 34.4103 9.0097 34.4103C8.70741 34.4103 8.48219 34.5176 8.33994 34.7261C8.19769 34.9346 8.12656 35.2563 8.12656 35.6853C8.12656 36.1142 8.19769 36.4359 8.33994 36.6444C8.48219 36.8529 8.70741 36.9602 9.0097 36.9602Z" fill="white"/>
<path d="M16.1714 34.4148V36.5655C16.1714 36.6667 16.1951 36.7501 16.2425 36.8157C16.2899 36.8812 16.361 36.911 16.4499 36.911C16.4973 36.911 16.5388 36.905 16.5685 36.8991C16.5981 36.8872 16.6277 36.8753 16.6514 36.8633C16.6752 36.8514 16.6989 36.8395 16.7166 36.8276C16.7344 36.8157 16.7641 36.8157 16.7878 36.8157C16.8293 36.8157 16.8589 36.8276 16.8826 36.8455C16.9063 36.8633 16.93 36.8931 16.9537 36.9289L17.3449 37.5425C17.179 37.6676 16.9893 37.7629 16.7818 37.8225C16.5744 37.888 16.361 37.9178 16.1358 37.9178C15.9283 37.9178 15.7505 37.888 15.5905 37.8285C15.4364 37.7689 15.3001 37.6855 15.1934 37.5723C15.0867 37.4651 15.0037 37.328 14.9504 37.1731C14.897 37.0182 14.8674 36.8455 14.8674 36.6489V34.4088H13.3323V37.8523H12.0402V34.4088L11.7557 34.3493C11.6608 34.3254 11.5779 34.2897 11.5186 34.242C11.4593 34.1944 11.4297 34.1229 11.4297 34.0335V33.5212H12.0342V33.2769C12.0342 33.0267 12.0757 32.8063 12.1528 32.6037C12.2298 32.4011 12.3484 32.2343 12.4966 32.0913C12.6447 31.9484 12.8285 31.8411 13.0419 31.7637C13.2552 31.6862 13.4982 31.6445 13.7709 31.6445C13.8776 31.6445 13.9724 31.6505 14.0613 31.6624C14.1502 31.6743 14.2451 31.6922 14.3399 31.722L14.3162 32.3535C14.3162 32.3952 14.3043 32.4369 14.2806 32.4667C14.2628 32.4965 14.2332 32.5203 14.2036 32.5382C14.1739 32.556 14.1384 32.568 14.1028 32.5799C14.0672 32.5858 14.0317 32.5918 13.9961 32.5918C13.8835 32.5918 13.7827 32.6037 13.6938 32.6275C13.6049 32.6514 13.5338 32.6871 13.4686 32.7467C13.4093 32.8063 13.3619 32.8777 13.3323 32.9731C13.3026 33.0684 13.2849 33.1816 13.2849 33.3246V33.5271H14.9385L15.1993 32.4607C15.2349 32.3296 15.3297 32.2582 15.4838 32.2582H16.1595V33.5271H17.2264V34.4148H16.1714Z" fill="white"/>
<path d="M24.1456 33.5157L22.8061 37.8528H21.757C21.7036 37.8528 21.6562 37.8349 21.6147 37.8052C21.5733 37.7694 21.5436 37.7158 21.5258 37.6383L20.9094 35.4758C20.8798 35.3804 20.8501 35.2792 20.8264 35.1898C20.8027 35.0945 20.779 34.9992 20.7612 34.9038C20.7435 34.9992 20.7198 35.1004 20.696 35.1958C20.6723 35.2911 20.6427 35.3924 20.6131 35.4877L19.9907 37.6383C19.9492 37.7813 19.8603 37.8528 19.7181 37.8528H18.7223L17.3828 33.5157H18.4141C18.503 33.5157 18.5801 33.5396 18.6453 33.5813C18.7105 33.623 18.752 33.6766 18.7697 33.7421L19.2024 35.6843C19.238 35.8332 19.2676 35.9762 19.2973 36.1132C19.3269 36.2502 19.3506 36.3873 19.3743 36.5302C19.4099 36.3932 19.4514 36.2502 19.4869 36.1132C19.5284 35.9762 19.5699 35.8332 19.6173 35.6843L20.1567 33.7362C20.1804 33.6706 20.2219 33.617 20.2812 33.5753C20.3404 33.5336 20.4115 33.5098 20.5005 33.5098H21.0754C21.1643 33.5098 21.2413 33.5336 21.3065 33.5753C21.3717 33.617 21.4132 33.6706 21.431 33.7362L21.9467 35.6843C21.9881 35.8332 22.0296 35.9762 22.0711 36.1132C22.1126 36.2502 22.1482 36.3932 22.1837 36.5362C22.2074 36.3992 22.2312 36.2562 22.2608 36.1192C22.2904 35.9821 22.326 35.8332 22.3675 35.6843L22.8239 33.7421C22.8476 33.6766 22.8891 33.623 22.9483 33.5813C23.0076 33.5396 23.0787 33.5157 23.1617 33.5157H24.1456Z" fill="white"/>
<path d="M24.4437 34.1168C24.7045 33.8844 24.9949 33.7116 25.3091 33.5985C25.6291 33.4853 25.967 33.4316 26.3285 33.4316C26.5893 33.4316 26.8264 33.4733 27.0338 33.5567C27.2413 33.6402 27.4191 33.7593 27.5673 33.9142C27.7155 34.0691 27.8221 34.2478 27.9051 34.4563C27.9822 34.6649 28.0237 34.8912 28.0237 35.1415V37.8521H27.431C27.3065 37.8521 27.2176 37.8343 27.1524 37.8045C27.0872 37.7747 27.0398 37.7032 26.9983 37.596L26.9094 37.3577C26.8027 37.447 26.696 37.5304 26.5952 37.6019C26.4945 37.6734 26.3937 37.733 26.287 37.7807C26.1803 37.8283 26.0677 37.8641 25.9433 37.8879C25.8247 37.9117 25.6884 37.9236 25.5402 37.9236C25.3446 37.9236 25.1668 37.8998 25.0009 37.8462C24.8408 37.7926 24.7045 37.7211 24.5919 37.6198C24.4793 37.5185 24.3904 37.3934 24.3311 37.2445C24.2718 37.0955 24.2422 36.9228 24.2422 36.7262C24.2422 36.5713 24.2837 36.4104 24.3607 36.2496C24.4378 36.0887 24.5741 35.9457 24.7638 35.8087C24.9534 35.6776 25.2142 35.5644 25.5402 35.4751C25.8662 35.3857 26.2752 35.3381 26.7671 35.3261V35.1415C26.7671 34.8853 26.7138 34.7066 26.613 34.5934C26.5063 34.4802 26.3641 34.4266 26.1685 34.4266C26.0144 34.4266 25.8899 34.4444 25.7951 34.4742C25.7002 34.51 25.6113 34.5457 25.5343 34.5874C25.4572 34.6291 25.3861 34.6649 25.3091 34.7006C25.232 34.7363 25.149 34.7483 25.0483 34.7483C24.9594 34.7483 24.8823 34.7244 24.823 34.6827C24.7638 34.641 24.7104 34.5874 24.6749 34.5219L24.4437 34.1168ZM26.7671 36.0887C26.5063 36.1006 26.2989 36.1245 26.1329 36.1542C25.967 36.184 25.8366 36.2317 25.7358 36.2794C25.641 36.327 25.5699 36.3866 25.5343 36.4521C25.4987 36.5177 25.4809 36.5832 25.4809 36.6606C25.4809 36.8096 25.5224 36.9108 25.5995 36.9704C25.6825 37.03 25.7951 37.0598 25.9551 37.0598C26.1211 37.0598 26.2692 37.03 26.3937 36.9704C26.5182 36.9108 26.6427 36.8155 26.773 36.6845L26.7671 36.0887Z" fill="white"/>
<path d="M30.049 34.1883C30.1794 33.9559 30.3335 33.7712 30.5113 33.6342C30.6832 33.5031 30.8847 33.4316 31.1099 33.4316C31.3055 33.4316 31.4596 33.4793 31.5841 33.5687L31.5011 34.5219C31.4893 34.5814 31.4656 34.6231 31.43 34.647C31.4004 34.6708 31.3529 34.6827 31.2996 34.6827C31.2759 34.6827 31.2463 34.6827 31.2107 34.6768C31.1751 34.6768 31.1396 34.6708 31.0981 34.6649C31.0566 34.6589 31.021 34.6589 30.9795 34.6529C30.938 34.647 30.9025 34.647 30.8669 34.647C30.6773 34.647 30.5291 34.6946 30.4165 34.7959C30.3038 34.8972 30.209 35.0342 30.132 35.2129V37.8462H28.8398V33.5091H29.6044C29.6696 33.5091 29.723 33.515 29.7645 33.527C29.806 33.5389 29.8415 33.5567 29.8712 33.5806C29.9008 33.6044 29.9245 33.6342 29.9364 33.6759C29.9541 33.7176 29.966 33.7653 29.9779 33.8189L30.049 34.1883Z" fill="white"/>
<path d="M33.0069 35.9155C33.0484 36.279 33.1551 36.5411 33.3329 36.7019C33.5107 36.8628 33.7419 36.9462 34.0205 36.9462C34.1687 36.9462 34.299 36.9283 34.4057 36.8926C34.5124 36.8568 34.6132 36.8151 34.6962 36.7734C34.7791 36.7317 34.8562 36.69 34.9273 36.6543C34.9984 36.6185 35.0696 36.6007 35.1525 36.6007C35.2533 36.6007 35.3304 36.6364 35.3837 36.7139L35.7571 37.1785C35.6267 37.3334 35.4785 37.4586 35.3244 37.5539C35.1703 37.6492 35.0103 37.7266 34.8503 37.7803C34.6902 37.8339 34.5243 37.8696 34.3642 37.8935C34.2042 37.9173 34.0501 37.9232 33.9019 37.9232C33.5997 37.9232 33.3152 37.8756 33.0484 37.7743C32.7817 37.673 32.5506 37.53 32.355 37.3334C32.1594 37.1368 31.9993 36.8985 31.8867 36.6066C31.7741 36.3147 31.7148 35.9811 31.7148 35.5938C31.7148 35.3019 31.7623 35.0279 31.863 34.7717C31.9638 34.5096 32.1001 34.2832 32.2898 34.0925C32.4735 33.8959 32.6987 33.741 32.9595 33.6278C33.2203 33.5147 33.5167 33.4551 33.8486 33.4551C34.1331 33.4551 34.3939 33.4968 34.631 33.5861C34.868 33.6755 35.0696 33.8066 35.2414 33.9734C35.4133 34.1462 35.5437 34.3547 35.6386 34.5989C35.7334 34.8432 35.7808 35.1232 35.7808 35.4389C35.7808 35.5343 35.7749 35.6177 35.769 35.6772C35.763 35.7368 35.7453 35.7845 35.7215 35.8262C35.6978 35.8619 35.6682 35.8858 35.6326 35.9036C35.5971 35.9215 35.5497 35.9275 35.4904 35.9275H33.0069V35.9155ZM34.625 35.1649C34.625 35.0636 34.6132 34.9623 34.5835 34.8611C34.5598 34.7657 34.5124 34.6764 34.4531 34.5989C34.3939 34.5215 34.3168 34.4619 34.2161 34.4142C34.1212 34.3666 34.0027 34.3428 33.8604 34.3428C33.6174 34.3428 33.4278 34.4142 33.2855 34.5513C33.1492 34.6942 33.0544 34.8968 33.0129 35.1589L34.625 35.1649Z" fill="white"/>
<path d="M2.88121 44.9122C3.07088 44.9122 3.23684 44.8824 3.38502 44.8168C3.53319 44.7513 3.65766 44.6619 3.76435 44.5487C3.86511 44.4296 3.94809 44.2866 4.00143 44.1198C4.05478 43.953 4.08441 43.7624 4.08441 43.5419V39.9316H5.48913V43.5419C5.48913 43.9173 5.42986 44.2568 5.30539 44.5726C5.18685 44.8824 5.01496 45.1564 4.78973 45.3769C4.5645 45.6032 4.29186 45.776 3.9718 45.9011C3.65173 46.0262 3.29018 46.0918 2.88714 46.0918C2.4841 46.0918 2.11662 46.0262 1.79656 45.9011C1.4765 45.776 1.20385 45.5973 0.978624 45.3769C0.753395 45.1505 0.58151 44.8824 0.462968 44.5726C0.344427 44.2628 0.285156 43.9173 0.285156 43.5419V39.9316H1.68987V43.536C1.68987 43.7504 1.71951 43.9411 1.77285 44.1138C1.8262 44.2807 1.90325 44.4236 2.00994 44.5428C2.1107 44.6619 2.23516 44.7513 2.38927 44.8168C2.51966 44.8824 2.69155 44.9122 2.88121 44.9122Z" fill="white"/>
<path d="M7.4765 42.1591C7.55948 42.0817 7.64838 42.0102 7.73729 41.9447C7.82619 41.8791 7.92103 41.8195 8.02179 41.7778C8.12255 41.7302 8.23516 41.6944 8.34778 41.6706C8.46632 41.6468 8.59671 41.6289 8.73304 41.6289C8.97012 41.6289 9.17756 41.6706 9.3613 41.754C9.54504 41.8374 9.69915 41.9506 9.82362 42.0996C9.94808 42.2485 10.0429 42.4213 10.1081 42.6238C10.1733 42.8264 10.2029 43.0468 10.2029 43.2851V46.0434H8.91085V43.2851C8.91085 43.0706 8.86343 42.9098 8.76267 42.7906C8.66784 42.6715 8.52559 42.6119 8.33592 42.6119C8.19367 42.6119 8.06328 42.6417 7.93881 42.7013C7.81434 42.7608 7.6958 42.8442 7.57726 42.9455V46.0375H6.28516V41.7004H7.08531C7.24534 41.7004 7.35203 41.7719 7.39945 41.9208L7.4765 42.1591Z" fill="white"/>
<path d="M12.4846 40.5028C12.4846 40.6041 12.4609 40.7054 12.4194 40.7947C12.3779 40.8841 12.3186 40.9675 12.2475 41.033C12.1764 41.0986 12.0934 41.1581 11.9986 41.1939C11.9037 41.2356 11.803 41.2535 11.6904 41.2535C11.5837 41.2535 11.4889 41.2356 11.394 41.1939C11.3051 41.1522 11.2221 41.0986 11.151 41.033C11.0799 40.9675 11.0265 40.8841 10.9851 40.7947C10.9436 40.7054 10.9258 40.61 10.9258 40.5028C10.9258 40.3956 10.9436 40.3002 10.9851 40.2049C11.0265 40.1156 11.0799 40.0322 11.151 39.9607C11.2221 39.8892 11.3051 39.8356 11.394 39.7998C11.4829 39.7581 11.5837 39.7402 11.6904 39.7402C11.7971 39.7402 11.8978 39.7581 11.9986 39.7998C12.0934 39.8415 12.1764 39.8951 12.2475 39.9607C12.3186 40.0322 12.3779 40.1096 12.4194 40.2049C12.4609 40.3002 12.4846 40.3956 12.4846 40.5028ZM12.3483 41.6884V46.0255H11.0562V41.6884H12.3483Z" fill="white"/>
<path d="M17.3133 41.6895L15.6419 46.0266H14.4683L12.7969 41.6895H13.8697C13.9586 41.6895 14.0356 41.7133 14.1008 41.755C14.166 41.7967 14.2075 41.8503 14.2253 41.9158L14.8239 43.858C14.8773 44.0189 14.9247 44.1738 14.9662 44.3227C15.0077 44.4716 15.0432 44.6265 15.0729 44.7755C15.1321 44.4716 15.221 44.1678 15.3277 43.858L15.9501 41.9158C15.9738 41.8503 16.0153 41.7967 16.0745 41.755C16.1338 41.7133 16.2049 41.6895 16.2879 41.6895H17.3133Z" fill="white"/>
<path d="M18.6515 44.0894C18.693 44.4528 18.7997 44.7149 18.9775 44.8758C19.1553 45.0366 19.3864 45.12 19.665 45.12C19.8132 45.12 19.9436 45.1022 20.0503 45.0664C20.1569 45.0307 20.2577 44.989 20.3407 44.9473C20.4237 44.9056 20.5007 44.8639 20.5718 44.8281C20.643 44.7924 20.7141 44.7745 20.7971 44.7745C20.8978 44.7745 20.9749 44.8102 21.0282 44.8877L21.4016 45.3524C21.2712 45.5073 21.1231 45.6324 20.969 45.7277C20.8149 45.823 20.6548 45.9005 20.4948 45.9541C20.3348 46.0077 20.1688 46.0435 20.0088 46.0673C19.8487 46.0911 19.6946 46.0971 19.5465 46.0971C19.2442 46.0971 18.9597 46.0494 18.693 45.9481C18.4262 45.8469 18.1951 45.7039 17.9995 45.5073C17.8039 45.3107 17.6439 45.0724 17.5313 44.7805C17.4186 44.4885 17.3594 44.1549 17.3594 43.7677C17.3594 43.4757 17.4068 43.2017 17.5076 42.9455C17.6083 42.6834 17.7446 42.457 17.9343 42.2664C18.118 42.0698 18.3433 41.9149 18.6041 41.8017C18.8648 41.6885 19.1612 41.6289 19.4931 41.6289C19.7776 41.6289 20.0384 41.6706 20.2755 41.76C20.5126 41.8493 20.7141 41.9804 20.886 42.1472C21.0579 42.32 21.1883 42.5285 21.2831 42.7728C21.3779 43.017 21.4253 43.297 21.4253 43.6128C21.4253 43.7081 21.4194 43.7915 21.4135 43.8511C21.4076 43.9106 21.3898 43.9583 21.3661 44C21.3424 44.0358 21.3127 44.0596 21.2772 44.0775C21.2416 44.0953 21.1942 44.1013 21.1349 44.1013H18.6515V44.0894ZM20.2755 43.3387C20.2755 43.2374 20.2636 43.1362 20.234 43.0349C20.2103 42.9396 20.1629 42.8502 20.1036 42.7728C20.0443 42.6953 19.9673 42.6357 19.8665 42.5881C19.7717 42.5404 19.6532 42.5166 19.5109 42.5166C19.2679 42.5166 19.0782 42.5881 18.936 42.7251C18.7997 42.8681 18.7048 43.0706 18.6633 43.3328L20.2755 43.3387Z" fill="white"/>
<path d="M23.2794 42.3621C23.4098 42.1297 23.5639 41.945 23.7417 41.808C23.9136 41.677 24.1152 41.6055 24.3404 41.6055C24.536 41.6055 24.6901 41.6531 24.8145 41.7425L24.7316 42.6957C24.7197 42.7553 24.696 42.797 24.6604 42.8208C24.6308 42.8446 24.5834 42.8566 24.53 42.8566C24.5063 42.8566 24.4767 42.8566 24.4411 42.8506C24.4056 42.8506 24.37 42.8446 24.3285 42.8387C24.287 42.8327 24.2515 42.8327 24.21 42.8268C24.1685 42.8208 24.1329 42.8208 24.0974 42.8208C23.9077 42.8208 23.7595 42.8685 23.6469 42.9697C23.5343 43.071 23.4395 43.208 23.3624 43.3868V46.02H22.0703V41.6829H22.8349C22.9001 41.6829 22.9534 41.6889 22.9949 41.7008C23.0364 41.7127 23.072 41.7306 23.1016 41.7544C23.1313 41.7782 23.155 41.808 23.1668 41.8497C23.1846 41.8914 23.1965 41.9391 23.2083 41.9927L23.2794 42.3621Z" fill="white"/>
<path d="M27.9938 42.6434C27.9583 42.6971 27.9227 42.7328 27.8872 42.7566C27.8516 42.7805 27.8042 42.7924 27.7449 42.7924C27.6856 42.7924 27.6204 42.7805 27.5612 42.7507C27.5019 42.7269 27.4367 42.6971 27.3656 42.6673C27.2945 42.6375 27.2174 42.6077 27.1285 42.5839C27.0396 42.56 26.9388 42.5422 26.8262 42.5422C26.6603 42.5422 26.5358 42.572 26.4469 42.6375C26.358 42.703 26.3165 42.7864 26.3165 42.8996C26.3165 42.983 26.3461 43.0486 26.3995 43.1022C26.4587 43.1558 26.5299 43.2035 26.6247 43.2452C26.7195 43.2869 26.8262 43.3226 26.9448 43.3584C27.0633 43.3941 27.1878 43.4358 27.3122 43.4775C27.4367 43.5192 27.5612 43.5728 27.6797 43.6324C27.7983 43.692 27.9049 43.7635 27.9998 43.8528C28.0946 43.9422 28.1717 44.0494 28.225 44.1745C28.2843 44.2996 28.308 44.4486 28.308 44.6273C28.308 44.8418 28.2665 45.0384 28.1894 45.2231C28.1124 45.4018 27.9938 45.5627 27.8397 45.6937C27.6856 45.8248 27.496 45.9261 27.2707 45.9976C27.0455 46.069 26.7847 46.1048 26.4884 46.1048C26.3402 46.1048 26.192 46.0929 26.0498 46.0631C25.9016 46.0333 25.7593 45.9976 25.623 45.9499C25.4867 45.9022 25.3563 45.8486 25.2437 45.7831C25.1251 45.7175 25.0244 45.6461 24.9414 45.5746L25.2437 45.098C25.2792 45.0443 25.3207 44.9967 25.3682 44.9669C25.4215 44.9371 25.4867 44.9192 25.5637 44.9192C25.6408 44.9192 25.706 44.9371 25.7653 44.9669C25.8245 45.0026 25.8897 45.0384 25.9609 45.0741C26.032 45.1158 26.109 45.1516 26.2039 45.1814C26.2987 45.2171 26.4113 45.229 26.5536 45.229C26.6543 45.229 26.7373 45.2171 26.8084 45.1992C26.8796 45.1754 26.9329 45.1516 26.9744 45.1158C27.0159 45.0801 27.0455 45.0384 27.0633 44.9967C27.0811 44.955 27.0929 44.9073 27.0929 44.8597C27.0929 44.7763 27.0633 44.7048 27.004 44.6452C26.9448 44.5916 26.8677 44.5439 26.7729 44.5022C26.678 44.4605 26.5713 44.4248 26.4528 44.389C26.3343 44.3533 26.2098 44.3116 26.0853 44.2699C25.9609 44.2282 25.8364 44.1745 25.7179 44.109C25.5993 44.0435 25.4926 43.966 25.3978 43.8707C25.303 43.7754 25.2259 43.6562 25.1666 43.5192C25.1074 43.3822 25.0777 43.2094 25.0777 43.0128C25.0777 42.8281 25.1133 42.6554 25.1844 42.4886C25.2555 42.3217 25.3622 42.1788 25.5045 42.0537C25.6467 41.9285 25.8245 41.8273 26.0379 41.7558C26.2513 41.6843 26.5002 41.6426 26.7847 41.6426C26.9388 41.6426 27.0929 41.6545 27.2352 41.6843C27.3834 41.7141 27.5197 41.7498 27.6441 41.8034C27.7745 41.8511 27.8872 41.9107 27.9938 41.9822C28.1005 42.0477 28.1894 42.1251 28.2724 42.2085L27.9938 42.6434Z" fill="white"/>
<path d="M30.4065 40.5028C30.4065 40.6041 30.3828 40.7054 30.3413 40.7947C30.2998 40.8841 30.2405 40.9675 30.1694 41.033C30.0983 41.0986 30.0153 41.1581 29.9205 41.1939C29.8256 41.2356 29.7249 41.2535 29.6123 41.2535C29.5056 41.2535 29.4107 41.2356 29.3159 41.1939C29.227 41.1522 29.144 41.0986 29.0729 41.033C29.0018 40.9675 28.9484 40.8841 28.9069 40.7947C28.8654 40.7054 28.8477 40.61 28.8477 40.5028C28.8477 40.3956 28.8654 40.3002 28.9069 40.2049C28.9484 40.1156 29.0018 40.0322 29.0729 39.9607C29.144 39.8892 29.227 39.8356 29.3159 39.7998C29.4048 39.7641 29.5056 39.7402 29.6123 39.7402C29.7189 39.7402 29.8197 39.7581 29.9205 39.7998C30.0212 39.8415 30.0983 39.8951 30.1694 39.9607C30.2405 40.0322 30.2998 40.1096 30.3413 40.2049C30.3887 40.3002 30.4065 40.3956 30.4065 40.5028ZM30.2761 41.6884V46.0255H28.984V41.6884H30.2761Z" fill="white"/>
<path d="M32.7226 46.0914C32.5152 46.0914 32.3374 46.0616 32.1773 46.0021C32.0232 45.9425 31.8869 45.8591 31.7802 45.7459C31.6735 45.6386 31.5906 45.5016 31.5372 45.3467C31.4839 45.1918 31.4542 45.0191 31.4542 44.8225V42.5824H31.0868C31.0216 42.5824 30.9623 42.5586 30.9149 42.5169C30.8675 42.4752 30.8438 42.4096 30.8438 42.3262V41.8199L31.5313 41.6888L31.7862 40.6283C31.8217 40.4973 31.9165 40.4258 32.0706 40.4258H32.7463V41.7007H33.8132V42.5884H32.7463V44.7391C32.7463 44.8403 32.77 44.9237 32.8175 44.9893C32.8649 45.0548 32.936 45.0846 33.0249 45.0846C33.0723 45.0846 33.1138 45.0786 33.1434 45.0727C33.1731 45.0608 33.2027 45.0488 33.2264 45.0369C33.2501 45.025 33.2738 45.0131 33.2916 45.0012C33.3153 44.9893 33.339 44.9893 33.3628 44.9893C33.4042 44.9893 33.4339 45.0012 33.4576 45.0191C33.4813 45.0369 33.505 45.0667 33.5287 45.1025L33.9199 45.7161C33.7539 45.8412 33.5643 45.9365 33.3568 45.9961C33.1494 46.0557 32.9419 46.0914 32.7226 46.0914Z" fill="white"/>
<path d="M38.4721 41.6895L36.1665 47.1525C36.125 47.2419 36.0776 47.3015 36.0242 47.3432C35.9709 47.3849 35.882 47.4027 35.7575 47.4027H34.7914L35.6212 45.6453L33.9023 41.6895H35.0403C35.1411 41.6895 35.2182 41.7133 35.2715 41.755C35.3248 41.7967 35.3663 41.8503 35.39 41.9158L36.0954 43.7865C36.1606 43.9593 36.2139 44.1321 36.2554 44.3108C36.285 44.2214 36.3147 44.1321 36.3443 44.0427C36.3739 43.9533 36.4095 43.864 36.4391 43.7806L37.0793 41.9218C37.103 41.8563 37.1504 41.8026 37.2096 41.7609C37.2748 41.7192 37.34 41.6954 37.4171 41.6954L38.4721 41.6895Z" fill="white"/>
<path d="M35.5213 7.71939L21.9305 0.451172V4.64529L30.8863 9.5841L21.9305 14.1714V18.3179L27.6679 15.3808V20.7247L19.4234 24.8414L19.4115 24.8354L19.3997 24.8414L11.161 20.7247V15.3808L16.8866 18.3179V14.1655L7.94263 9.5841L16.8866 4.65125V0.457129L3.04688 7.85641V11.2224L7.48032 13.4923V23.0184L19.4115 28.9759L31.3486 23.0184V13.4923L35.5213 11.3535V7.71939Z" fill="white"/>
</g>
<defs>
<clipPath id="clip0_8548_18058">
<rect width="38.7097" height="48" fill="white"/>
</clipPath>
</defs>
</svg>
